<svg width="1512" height="1352" viewBox="0 0 1512 1352" fill="none" xmlns="http://www.w3.org/2000/svg">
<rect x="48.668" y="272" width="1665.17" height="268.284" transform="rotate(18.8472 48.668 272)" fill="#668B6B"/>
<rect x="-93" y="278" width="1687.37" height="268.284" transform="rotate(-7.2559 -93 278)" fill="#79A480"/>
<path d="M316.023 438.327L320.835 277.725L387.17 268.722C402.653 266.62 414.751 268.625 423.464 274.735C432.262 280.735 436.441 293.374 436.002 312.651C435.713 332.302 430.553 347.292 420.523 357.622C410.576 367.842 398.2 373.956 383.395 375.966L360.896 379.019L358.698 432.535L316.023 438.327ZM360.902 348.566L374.256 346.753C380.933 345.847 385.726 343.768 388.636 340.515C391.532 337.165 393.143 330.886 393.47 321.676C393.723 311.195 392.202 305.439 388.909 304.408C385.712 303.363 381.646 303.176 376.711 303.846L363.502 305.639L360.902 348.566ZM393.1 427.866L372.189 360.93L414.436 354.161L438.097 421.759L393.1 427.866ZM445.038 368.338L444.876 311.594C445.676 292.071 452.02 277.462 463.91 267.767C475.897 258.059 491.519 251.898 510.776 249.285C530.227 246.645 545.329 248.635 556.083 255.257C566.934 261.866 572.008 274.925 571.305 294.435L571.322 351.198C570.606 370.612 564.342 385.456 552.531 395.732C540.817 405.994 525.331 412.432 506.074 415.046C486.817 417.66 471.633 415.433 460.524 408.367C449.497 401.191 444.336 387.848 445.038 368.338ZM489.974 377.022C489.263 381.948 490.227 384.33 492.866 384.169C495.505 384.008 499.921 383.507 506.114 382.666C512.307 381.826 517.133 381.072 520.59 380.406C524.047 379.74 526.132 376.944 526.843 372.018L526.461 287.513C527.167 283.278 526.297 281.228 523.852 281.362C521.393 281.4 517.067 281.84 510.874 282.68C504.584 283.534 499.62 284.355 495.982 285.145C492.428 285.824 490.298 288.282 489.592 292.517L489.974 377.022ZM583.977 401.96L588.788 241.357L654.397 232.453C670.171 230.312 681.497 232.076 688.377 237.745C695.34 243.304 698.556 252.477 698.025 265.262C697.912 277.498 695.603 286.631 691.1 292.663C686.597 298.694 680.863 302.922 673.9 305.345L673.919 305.491C682.232 305.742 689.146 308.401 694.663 313.467C700.263 318.422 702.912 327.77 702.608 341.51C702.167 357.141 697.478 369.062 688.54 377.272C679.602 385.482 666.714 390.73 649.876 393.015L583.977 401.96ZM625.273 365.311L642.691 362.947C648.981 362.093 653.204 360.534 655.361 358.271C657.504 355.91 658.783 350.809 659.197 342.967C659.422 334.461 658.603 329.152 656.739 327.04C654.96 324.818 651.07 324.114 645.07 324.928L627.652 327.292L625.273 365.311ZM627.713 303.779L643.389 301.652C649.582 300.811 653.612 299.279 655.478 297.054C657.441 294.817 658.522 289.348 658.721 280.649C659.012 272.627 658.485 268.017 657.14 266.82C655.795 265.623 652.171 265.425 646.268 266.226L629.866 268.452L627.713 303.779ZM712.411 332.049L712.249 275.305C713.048 255.782 719.393 241.173 731.283 231.478C743.27 221.77 758.892 215.609 778.149 212.995C797.6 210.356 812.702 212.346 823.456 218.968C834.306 225.577 839.38 238.636 838.678 258.146L838.695 314.909C837.979 334.323 831.715 349.167 819.904 359.443C808.19 369.705 792.704 376.143 773.447 378.757C754.19 381.371 739.006 379.144 727.896 372.078C716.87 364.902 711.708 351.559 712.411 332.049ZM757.347 340.733C756.636 345.659 757.599 348.041 760.238 347.88C762.877 347.719 767.294 347.218 773.487 346.377C779.68 345.537 784.505 344.783 787.963 344.117C791.42 343.451 793.505 340.655 794.216 335.729L793.833 251.224C794.54 246.989 793.67 244.938 791.225 245.073C788.766 245.111 784.44 245.551 778.247 246.391C771.957 247.245 766.993 248.066 763.355 248.856C759.801 249.535 757.671 251.993 756.964 256.228L757.347 340.733ZM846.477 244.818L846.436 206.388L962.994 190.568L963.036 228.998L926.457 233.962L921.604 356.135L878.348 362.006L883.201 239.833L846.477 244.818ZM961.204 298.282L961.042 241.538C961.842 222.015 968.186 207.406 980.076 197.711C992.063 188.003 1007.69 181.842 1026.94 179.228C1046.39 176.588 1061.5 178.579 1072.25 185.201C1083.1 191.809 1088.17 204.869 1087.47 224.379L1087.49 281.142C1086.77 300.555 1080.51 315.4 1068.7 325.675C1056.98 335.938 1041.5 342.376 1022.24 344.99C1002.98 347.603 987.799 345.377 976.69 338.311C965.663 331.135 960.502 317.792 961.204 298.282ZM1006.14 306.966C1005.43 311.891 1006.39 314.274 1009.03 314.112C1011.67 313.951 1016.09 313.451 1022.28 312.61C1028.47 311.769 1033.3 311.016 1036.76 310.35C1040.21 309.683 1042.3 306.887 1043.01 301.962L1042.63 217.456C1043.33 213.221 1042.46 211.171 1040.02 211.306C1037.56 211.344 1033.23 211.783 1027.04 212.624C1020.75 213.478 1015.79 214.299 1012.15 215.089C1008.59 215.768 1006.46 218.225 1005.76 222.46L1006.14 306.966Z" fill="#BAB6B6"/>
<path d="M335.106 435.738L339.917 275.135L406.252 266.132C421.735 264.031 433.833 266.035 442.547 272.145C451.344 278.145 455.523 290.784 455.084 310.061C454.795 329.712 449.635 344.703 439.605 355.032C429.659 365.252 417.283 371.366 402.477 373.376L379.978 376.429L377.781 429.946L335.106 435.738ZM379.984 345.976L393.338 344.164C400.015 343.257 404.809 341.178 407.718 337.925C410.614 334.575 412.225 328.296 412.552 319.086C412.805 308.605 411.285 302.849 407.991 301.818C404.794 300.774 400.728 300.586 395.793 301.256L382.584 303.049L379.984 345.976ZM412.182 425.276L391.271 358.34L433.518 351.571L457.18 419.169L412.182 425.276ZM464.121 365.748L463.958 309.005C464.758 289.481 471.103 274.872 482.993 265.177C494.98 255.469 510.602 249.308 529.859 246.695C549.309 244.055 564.411 246.046 575.165 252.667C586.016 259.276 591.09 272.335 590.387 291.845L590.404 348.609C589.688 368.022 583.425 382.866 571.613 393.142C559.899 403.404 544.413 409.842 525.156 412.456C505.899 415.07 490.716 412.844 479.606 405.777C468.58 398.601 463.418 385.258 464.121 365.748ZM509.056 374.432C508.345 379.358 509.309 381.74 511.948 381.579C514.587 381.418 519.003 380.917 525.196 380.076C531.39 379.236 536.215 378.482 539.672 377.816C543.13 377.15 545.214 374.354 545.925 369.428L545.543 284.923C546.249 280.688 545.38 278.638 542.934 278.772C540.475 278.811 536.15 279.25 529.956 280.09C523.666 280.944 518.702 281.766 515.065 282.555C511.51 283.235 509.38 285.692 508.674 289.927L509.056 374.432ZM603.059 399.37L607.87 238.767L673.48 229.863C689.253 227.722 700.58 229.486 707.459 235.155C714.422 240.715 717.638 249.887 717.107 262.672C716.994 274.908 714.686 284.042 710.182 290.073C705.679 296.105 699.946 300.332 692.982 302.756L693.002 302.901C701.314 303.152 708.229 305.811 713.745 310.877C719.345 315.833 721.994 325.18 721.69 338.92C721.25 354.551 716.56 366.472 707.622 374.682C698.684 382.892 685.797 388.14 668.959 390.426L603.059 399.37ZM644.355 362.721L661.773 360.357C668.063 359.503 672.287 357.945 674.443 355.681C676.587 353.32 677.865 348.219 678.279 340.377C678.504 331.871 677.685 326.562 675.822 324.45C674.042 322.228 670.152 321.524 664.152 322.338L646.734 324.702L644.355 362.721ZM646.795 301.189L662.472 299.062C668.665 298.221 672.694 296.689 674.561 294.464C676.524 292.227 677.605 286.758 677.804 278.059C678.095 270.037 677.568 265.427 676.222 264.23C674.877 263.033 671.253 262.835 665.35 263.636L648.948 265.862L646.795 301.189ZM731.493 329.459L731.331 272.716C732.131 253.192 738.475 238.583 750.366 228.888C762.352 219.18 777.974 213.019 797.231 210.406C816.682 207.766 831.784 209.757 842.538 216.378C853.389 222.987 858.463 236.046 857.76 255.556L857.777 312.32C857.061 331.733 850.798 346.577 838.986 356.853C827.272 367.115 811.786 373.553 792.529 376.167C773.272 378.781 758.089 376.555 746.979 369.488C735.952 362.312 730.791 348.969 731.493 329.459ZM776.429 338.143C775.718 343.069 776.682 345.451 779.321 345.29C781.96 345.129 786.376 344.628 792.569 343.787C798.762 342.947 803.588 342.193 807.045 341.527C810.502 340.861 812.587 338.065 813.298 333.139L812.916 248.634C813.622 244.399 812.752 242.349 810.307 242.483C807.848 242.521 803.522 242.961 797.329 243.801C791.039 244.655 786.075 245.477 782.437 246.266C778.883 246.946 776.753 249.403 776.047 253.638L776.429 338.143ZM865.56 242.228L865.518 203.798L982.076 187.979L982.118 226.408L945.539 231.373L940.686 353.545L897.43 359.416L902.284 237.244L865.56 242.228ZM980.287 295.692L980.124 238.948C980.924 219.425 987.269 204.816 999.159 195.121C1011.15 185.413 1026.77 179.252 1046.02 176.638C1065.48 173.998 1080.58 175.989 1091.33 182.611C1102.18 189.219 1107.26 202.279 1106.55 221.789L1106.57 278.552C1105.85 297.966 1099.59 312.81 1087.78 323.086C1076.06 333.348 1060.58 339.786 1041.32 342.4C1022.07 345.013 1006.88 342.787 995.772 335.721C984.746 328.545 979.584 315.202 980.287 295.692ZM1025.22 304.376C1024.51 309.301 1025.47 311.684 1028.11 311.523C1030.75 311.362 1035.17 310.861 1041.36 310.02C1047.56 309.18 1052.38 308.426 1055.84 307.76C1059.3 307.093 1061.38 304.297 1062.09 299.372L1061.71 214.866C1062.42 210.631 1061.55 208.581 1059.1 208.716C1056.64 208.754 1052.32 209.193 1046.12 210.034C1039.83 210.888 1034.87 211.709 1031.23 212.499C1027.68 213.178 1025.55 215.635 1024.84 219.87L1025.22 304.376Z" fill="#928B8B"/>
<path d="M357.506 432.697L362.318 272.095L428.653 263.092C444.136 260.99 456.234 262.995 464.948 269.105C473.745 275.105 477.924 287.744 477.485 307.021C477.196 326.672 472.036 341.662 462.006 351.992C452.06 362.211 439.684 368.326 424.878 370.335L402.379 373.389L400.182 426.905L357.506 432.697ZM402.385 342.936L415.739 341.123C422.416 340.217 427.209 338.138 430.119 334.885C433.015 331.535 434.626 325.255 434.953 316.046C435.206 305.565 433.686 299.809 430.392 298.778C427.195 297.733 423.129 297.546 418.194 298.216L404.985 300.009L402.385 342.936ZM434.583 422.236L413.672 355.3L455.919 348.531L479.581 416.129L434.583 422.236ZM486.522 362.708L486.359 305.964C487.159 286.441 493.504 271.832 505.394 262.137C517.38 252.429 533.002 246.268 552.259 243.654C571.71 241.014 586.812 243.005 597.566 249.627C608.417 256.236 613.491 269.295 612.788 288.805L612.805 345.568C612.089 364.982 605.826 379.826 594.014 390.102C582.3 400.364 566.814 406.802 547.557 409.416C528.3 412.029 513.117 409.803 502.007 402.737C490.98 395.561 485.819 382.218 486.522 362.708ZM531.457 371.392C530.746 376.318 531.71 378.7 534.349 378.539C536.988 378.378 541.404 377.877 547.597 377.036C553.79 376.196 558.616 375.442 562.073 374.776C565.531 374.109 567.615 371.313 568.326 366.388L567.944 281.883C568.65 277.647 567.78 275.597 565.335 275.732C562.876 275.77 558.55 276.21 552.357 277.05C546.067 277.904 541.103 278.725 537.466 279.515C533.911 280.194 531.781 282.652 531.075 286.887L531.457 371.392ZM625.46 396.329L630.271 235.727L695.881 226.822C711.654 224.682 722.98 226.446 729.86 232.115C736.823 237.674 740.039 246.847 739.508 259.632C739.395 271.868 737.086 281.001 732.583 287.033C728.08 293.064 722.347 297.292 715.383 299.715L715.402 299.86C723.715 300.112 730.629 302.771 736.146 307.836C741.746 312.792 744.395 322.14 744.091 335.88C743.651 351.511 738.961 363.432 730.023 371.642C721.085 379.852 708.197 385.1 691.36 387.385L625.46 396.329ZM666.756 359.681L684.174 357.317C690.464 356.463 694.687 354.904 696.844 352.641C698.987 350.28 700.266 345.179 700.68 337.337C700.905 328.831 700.086 323.522 698.223 321.41C696.443 319.187 692.553 318.484 686.553 319.298L669.135 321.662L666.756 359.681ZM669.196 298.149L684.872 296.021C691.066 295.181 695.095 293.648 696.962 291.424C698.925 289.187 700.006 283.718 700.205 275.019C700.495 266.996 699.968 262.387 698.623 261.19C697.278 259.992 693.654 259.794 687.751 260.596L671.349 262.822L669.196 298.149ZM753.894 326.419L753.732 269.675C754.532 250.152 760.876 235.543 772.766 225.848C784.753 216.14 800.375 209.979 819.632 207.365C839.083 204.725 854.185 206.716 864.939 213.338C875.79 219.947 880.864 233.006 880.161 252.516L880.178 309.279C879.462 328.693 873.198 343.537 861.387 353.813C849.673 364.075 834.187 370.513 814.93 373.127C795.673 375.74 780.489 373.514 769.38 366.448C758.353 359.272 753.192 345.929 753.894 326.419ZM798.83 335.103C798.119 340.028 799.083 342.411 801.722 342.25C804.361 342.089 808.777 341.588 814.97 340.747C821.163 339.907 825.989 339.153 829.446 338.487C832.903 337.82 834.988 335.024 835.699 330.099L835.316 245.594C836.023 241.358 835.153 239.308 832.708 239.443C830.249 239.481 825.923 239.921 819.73 240.761C813.44 241.615 808.476 242.436 804.838 243.226C801.284 243.905 799.154 246.362 798.447 250.598L798.83 335.103ZM887.961 239.188L887.919 200.758L1004.48 184.938L1004.52 223.368L967.94 228.332L963.087 350.505L919.831 356.376L924.684 234.203L887.961 239.188ZM1002.69 292.652L1002.53 235.908C1003.32 216.385 1009.67 201.776 1021.56 192.081C1033.55 182.373 1049.17 176.212 1068.43 173.598C1087.88 170.958 1102.98 172.949 1113.73 179.571C1124.58 186.179 1129.66 199.238 1128.95 218.749L1128.97 275.512C1128.26 294.925 1121.99 309.77 1110.18 320.045C1098.47 330.308 1082.98 336.746 1063.72 339.359C1044.47 341.973 1029.28 339.747 1018.17 332.681C1007.15 325.505 1001.98 312.162 1002.69 292.652ZM1047.62 301.336C1046.91 306.261 1047.88 308.643 1050.51 308.482C1053.15 308.321 1057.57 307.82 1063.76 306.98C1069.96 306.139 1074.78 305.386 1078.24 304.719C1081.7 304.053 1083.78 301.257 1084.49 296.332L1084.11 211.826C1084.82 207.591 1083.95 205.541 1081.5 205.676C1079.04 205.714 1074.72 206.153 1068.52 206.994C1062.23 207.847 1057.27 208.669 1053.63 209.458C1050.08 210.138 1047.95 212.595 1047.24 216.83L1047.62 301.336Z" fill="#535252"/>
<path d="M379.078 429.769L383.889 269.167L450.224 260.164C465.707 258.062 477.805 260.067 486.519 266.177C495.316 272.177 499.495 284.816 499.056 304.093C498.767 323.744 493.607 338.734 483.577 349.064C473.631 359.283 461.255 365.398 446.449 367.407L423.95 370.461L421.753 423.977L379.078 429.769ZM423.956 340.008L437.31 338.195C443.988 337.289 448.781 335.21 451.69 331.957C454.586 328.607 456.198 322.327 456.524 313.118C456.777 302.637 455.257 296.881 451.963 295.85C448.766 294.805 444.7 294.618 439.765 295.288L426.556 297.081L423.956 340.008ZM456.154 419.308L435.243 352.372L477.49 345.603L501.152 413.201L456.154 419.308ZM508.093 359.78L507.931 303.036C508.73 283.513 515.075 268.904 526.965 259.209C538.952 249.501 554.574 243.34 573.831 240.726C593.281 238.086 608.384 240.077 619.137 246.699C629.988 253.308 635.062 266.367 634.359 285.877L634.376 342.64C633.66 362.054 627.397 376.898 615.586 387.174C603.871 397.436 588.385 403.874 569.128 406.488C549.871 409.102 534.688 406.875 523.578 399.809C512.552 392.633 507.39 379.29 508.093 359.78ZM553.028 368.464C552.317 373.39 553.281 375.772 555.92 375.611C558.559 375.45 562.975 374.949 569.168 374.108C575.362 373.268 580.187 372.514 583.644 371.848C587.102 371.181 589.186 368.385 589.897 363.46L589.515 278.955C590.221 274.72 589.352 272.669 586.906 272.804C584.448 272.842 580.122 273.282 573.929 274.122C567.639 274.976 562.675 275.797 559.037 276.587C555.483 277.266 553.352 279.724 552.646 283.959L553.028 368.464ZM647.031 393.401L651.842 232.799L717.452 223.894C733.225 221.754 744.552 223.518 751.431 229.187C758.395 234.746 761.611 243.919 761.079 256.704C760.966 268.94 758.658 278.073 754.155 284.105C749.651 290.136 743.918 294.364 736.954 296.787L736.974 296.932C745.286 297.184 752.201 299.843 757.717 304.908C763.318 309.864 765.966 319.212 765.663 332.952C765.222 348.583 760.532 360.504 751.595 368.714C742.657 376.924 729.769 382.172 712.931 384.457L647.031 393.401ZM688.327 356.753L705.745 354.389C712.035 353.535 716.259 351.976 718.415 349.713C720.559 347.352 721.837 342.251 722.251 334.409C722.477 325.903 721.657 320.594 719.794 318.482C718.014 316.26 714.124 315.556 708.125 316.37L690.706 318.734L688.327 356.753ZM690.767 295.221L706.444 293.093C712.637 292.253 716.667 290.72 718.533 288.496C720.496 286.259 721.577 280.79 721.776 272.091C722.067 264.068 721.54 259.459 720.195 258.262C718.849 257.064 715.225 256.866 709.323 257.668L692.92 259.894L690.767 295.221ZM775.466 323.491L775.303 266.747C776.103 247.224 782.448 232.615 794.338 222.92C806.325 213.212 821.946 207.051 841.204 204.437C860.654 201.797 875.756 203.788 886.51 210.41C897.361 217.019 902.435 230.078 901.732 249.588L901.749 306.351C901.033 325.765 894.77 340.609 882.958 350.885C871.244 361.147 855.758 367.585 836.501 370.199C817.244 372.812 802.061 370.586 790.951 363.52C779.925 356.344 774.763 343.001 775.466 323.491ZM820.401 332.175C819.69 337.1 820.654 339.483 823.293 339.322C825.932 339.161 830.348 338.66 836.541 337.819C842.734 336.979 847.56 336.225 851.017 335.559C854.475 334.892 856.559 332.096 857.27 327.171L856.888 242.666C857.594 238.43 856.725 236.38 854.279 236.515C851.82 236.553 847.495 236.993 841.301 237.833C835.011 238.687 830.047 239.508 826.41 240.298C822.855 240.977 820.725 243.435 820.019 247.67L820.401 332.175ZM909.532 236.26L909.49 197.83L1026.05 182.01L1026.09 220.44L989.511 225.404L984.658 347.577L941.403 353.448L946.256 231.275L909.532 236.26ZM1024.26 289.724L1024.1 232.98C1024.9 213.457 1031.24 198.848 1043.13 189.153C1055.12 179.445 1070.74 173.284 1090 170.67C1109.45 168.03 1124.55 170.021 1135.3 176.643C1146.15 183.251 1151.23 196.311 1150.53 215.821L1150.54 272.584C1149.83 291.997 1143.56 306.842 1131.75 317.117C1120.04 327.38 1104.55 333.818 1085.29 336.432C1066.04 339.045 1050.85 336.819 1039.74 329.753C1028.72 322.577 1023.56 309.234 1024.26 289.724ZM1069.19 298.408C1068.48 303.333 1069.45 305.715 1072.09 305.554C1074.73 305.393 1079.14 304.892 1085.33 304.052C1091.53 303.211 1096.35 302.458 1099.81 301.791C1103.27 301.125 1105.35 298.329 1106.06 293.404L1105.68 208.898C1106.39 204.663 1105.52 202.613 1103.07 202.748C1100.61 202.786 1096.29 203.225 1090.09 204.066C1083.8 204.919 1078.84 205.741 1075.2 206.53C1071.65 207.21 1069.52 209.667 1068.81 213.902L1069.19 298.408Z" fill="black"/>
<path d="M463.184 616.398L541.36 476.024L625.64 506.149L608.19 539.736L564.464 524.106L551.295 543.977L589.641 557.684L572.822 589.94L534.614 576.283L503.738 630.893L463.184 616.398ZM555.602 649.432L633.778 509.058L674.332 523.554L613.655 630.203L662.347 647.607L644.848 681.332L555.602 649.432ZM654.366 684.734L732.542 544.36L824.546 577.246L807.047 610.971L753.527 591.84L740.781 611.396L786.99 627.913L770.507 659.667L724.298 643.15L709.965 665.406L765.14 685.128L748.025 718.211L654.366 684.734ZM747.887 718.162L845.279 647.193L853.28 650.052L911.585 608.357L948.828 621.669L857.171 688.778L849.309 685.968L786.234 731.869L747.887 718.162ZM829.098 578.873L872.134 594.256L872.049 658.472L874.719 659.271L870.79 762.092L827.753 746.709L830.137 674.759L827.93 673.97L829.098 578.873Z" fill="#BAB6B6"/>
<path d="M481.318 622.88L559.494 482.506L643.774 512.631L626.324 546.218L582.598 530.588L569.428 550.459L607.775 564.166L590.956 596.422L552.747 582.765L521.871 637.375L481.318 622.88ZM573.736 655.914L651.912 515.54L692.466 530.036L631.789 636.685L680.481 654.089L662.981 687.814L573.736 655.914ZM672.499 691.216L750.675 550.842L842.68 583.728L825.181 617.452L771.661 598.322L758.915 617.878L805.124 634.395L788.64 666.149L742.431 649.632L728.098 671.888L783.273 691.609L766.159 724.693L672.499 691.216ZM766.021 724.644L863.413 653.675L871.413 656.534L929.718 614.839L966.961 628.151L875.305 695.26L867.443 692.45L804.367 738.351L766.021 724.644ZM847.231 585.355L890.268 600.738L890.182 664.954L892.852 665.753L888.923 768.574L845.887 753.191L848.27 681.241L846.063 680.452L847.231 585.355Z" fill="#928B8B"/>
<path d="M502.605 630.489L580.781 490.115L665.061 520.24L647.611 553.826L603.885 538.197L590.715 558.068L629.062 571.775L612.243 604.031L574.034 590.374L543.159 644.984L502.605 630.489ZM595.023 663.523L673.199 523.149L713.753 537.645L653.076 644.294L701.768 661.698L684.269 695.423L595.023 663.523ZM693.786 698.825L771.962 558.451L863.967 591.337L846.468 625.061L792.948 605.931L780.202 625.487L826.411 642.004L809.927 673.758L763.718 657.241L749.385 679.497L804.56 699.218L787.446 732.302L693.786 698.825ZM787.308 732.253L884.7 661.283L892.7 664.143L951.005 622.448L988.248 635.76L896.592 702.869L888.73 700.058L825.655 745.96L787.308 732.253ZM868.519 592.964L911.555 608.347L911.469 672.563L914.139 673.362L910.21 776.183L867.174 760.8L869.558 688.85L867.351 688.061L868.519 592.964Z" fill="#535252"/>
<path d="M523.104 637.815L601.28 497.442L685.56 527.567L668.11 561.153L624.384 545.524L611.215 565.395L649.561 579.102L632.742 611.358L594.534 597.7L563.658 652.311L523.104 637.815ZM615.522 670.849L693.698 530.476L734.252 544.971L673.575 651.621L722.267 669.025L704.768 702.749L615.522 670.849ZM714.286 706.151L792.462 565.778L884.466 598.664L866.967 632.388L813.447 613.258L800.701 632.814L846.91 649.331L830.427 681.085L784.218 664.568L769.885 686.823L825.06 706.545L807.945 739.629L714.286 706.151ZM807.807 739.58L905.199 668.61L913.2 671.47L971.504 629.775L1008.75 643.087L917.091 710.195L909.229 707.385L846.154 753.286L807.807 739.58ZM889.018 600.291L932.054 615.674L931.968 679.89L934.639 680.689L930.709 783.51L887.673 768.127L890.057 696.176L887.85 695.388L889.018 600.291Z" fill="black"/>
</svg>
